HIERARCHY
ROOT Hips
{
	OFFSET 37.489101 -4.432526 98.902298
	CHANNELS 6 Xposition Yposition Zposition Xrotation Yrotation Zrotation
	JOINT spine
	{
		OFFSET 0.000000 -0.477353 8.301041
		CHANNELS 3 Xrotation Yrotation Zrotation
		JOINT spine1
		{
			OFFSET 0.000000 -0.000001 10.456497
			CHANNELS 3 Xrotation Yrotation Zrotation
			JOINT spine2
			{
				OFFSET 0.000000 -0.000002 10.019203
				CHANNELS 3 Xrotation Yrotation Zrotation
				JOINT Neck
				{
					OFFSET 0.000000 -1.226414 25.723503
					CHANNELS 3 Xrotation Yrotation Zrotation
					JOINT Head
					{
						OFFSET 0.000000 -0.000001 7.771744
						CHANNELS 3 Xrotation Yrotation Zrotation
						End Site
						{
							OFFSET 0.000000 6.203937 18.811996
						}
					}
				}
				JOINT RightShoulder
				{
					OFFSET -4.218800 0.587438 10.820000
					CHANNELS 3 Xrotation Yrotation Zrotation
					JOINT RightArm
					{
						OFFSET 0.000000 -0.000002 14.191406
						CHANNELS 3 Xrotation Yrotation Zrotation
						JOINT RightArmRoll
						{
							OFFSET 0.000000 -0.000001 7.164078
							CHANNELS 3 Xrotation Yrotation Zrotation
							JOINT RightForeArm
							{
								OFFSET 0.000000 -0.000003 20.866501
								CHANNELS 3 Xrotation Yrotation Zrotation
								JOINT RightForeArmRoll
								{
									OFFSET 0.000000 -0.000001 8.039215
									CHANNELS 3 Xrotation Yrotation Zrotation
									JOINT RightHand
									{
										OFFSET 0.000000 -0.000003 16.132996
										CHANNELS 3 Xrotation Yrotation Zrotation
										End Site
										{
											OFFSET 0.000000 0.000000 0.100006
										}
									}
								}
							}
						}
					}
				}
				JOINT LeftShoulder
				{
					OFFSET 4.218800 0.587438 10.820000
					CHANNELS 3 Xrotation Yrotation Zrotation
					JOINT LeftArm
					{
						OFFSET 0.000000 -0.000002 14.191406
						CHANNELS 3 Xrotation Yrotation Zrotation
						JOINT LeftArmRoll
						{
							OFFSET 0.000000 -0.000001 7.164078
							CHANNELS 3 Xrotation Yrotation Zrotation
							JOINT LeftForeArm
							{
								OFFSET 0.000000 -0.000003 20.866501
								CHANNELS 3 Xrotation Yrotation Zrotation
								JOINT LeftForeArmRoll
								{
									OFFSET 0.000000 -0.000001 8.039215
									CHANNELS 3 Xrotation Yrotation Zrotation
									JOINT LeftHand
									{
										OFFSET 0.000000 -0.000003 16.132996
										CHANNELS 3 Xrotation Yrotation Zrotation
										End Site
										{
											OFFSET 0.000000 0.000000 0.100006
										}
									}
								}
							}
						}
					}
				}
			}
		}
	}
	JOINT RightUpLeg
	{
		OFFSET -7.357731 1.131820 -1.349213
		CHANNELS 3 Xrotation Yrotation Zrotation
		JOINT RightUpLegRoll
		{
			OFFSET 0.000000 -0.000003 18.916801
			CHANNELS 3 Xrotation Yrotation Zrotation
			JOINT RightLeg
			{
				OFFSET 0.000000 0.000004 -23.425598
				CHANNELS 3 Xrotation Yrotation Zrotation
				JOINT RightLegRoll
				{
					OFFSET 0.000000 -0.000004 23.502296
					CHANNELS 3 Xrotation Yrotation Zrotation
					JOINT RightFoot
					{
						OFFSET 0.000000 -0.000003 19.561707
						CHANNELS 3 Xrotation Yrotation Zrotation
						JOINT RightToeBase
						{
							OFFSET 0.000000 -0.000003 16.352600
							CHANNELS 3 Xrotation Yrotation Zrotation
							End Site
							{
								OFFSET 0.006931 0.912836 7.919434
							}
						}
					}
				}
			}
		}
	}
	JOINT LeftUpLeg
	{
		OFFSET 7.357731 1.131820 -1.349213
		CHANNELS 3 Xrotation Yrotation Zrotation
		JOINT LeftUpLegRoll
		{
			OFFSET 0.000000 -0.000003 18.916901
			CHANNELS 3 Xrotation Yrotation Zrotation
			JOINT LeftLeg
			{
				OFFSET 0.000000 -0.000004 23.425507
				CHANNELS 3 Xrotation Yrotation Zrotation
				JOINT LeftLegRoll
				{
					OFFSET 0.000000 -0.000004 23.719498
					CHANNELS 3 Xrotation Yrotation Zrotation
					JOINT LeftFoot
					{
						OFFSET 0.000000 -0.000003 19.344406
						CHANNELS 3 Xrotation Yrotation Zrotation
						JOINT LeftToeBase
						{
							OFFSET 0.000000 -0.000003 16.352600
							CHANNELS 3 Xrotation Yrotation Zrotation
							End Site
							{
								OFFSET -0.031063 0.912835 7.919434
							}
						}
					}
				}
			}
		}
	}
}
MOTION
Frames: 6
Frame Time: 0.041667
37.187000 -3.744681 98.873703 -3.977878 -0.868945 0.188621 -1.244329 0.011660 0.071395 1.525881 0.025872 0.121072 3.170952 0.027324 0.120760 24.449429 1.430841 -1.017027 -7.241506 0.164456 -0.938421 -2.115875 -76.456707 -4.303616 -82.595715 -115.807592 -58.906857 -0.000001 -0.000000 0.000000 0.084933 -10.482092 -0.508946 0.000002 -0.000005 -3.097541 -5.000233 -7.998782 0.000171 11.283492 67.773536 -11.481033 -58.284613 108.120433 40.150297 0.000001 -0.000006 -0.000001 0.072487 9.325164 0.692247 0.000002 -0.000013 3.035631 -5.000233 7.998863 -0.000127 2.265055 -175.347622 1.859343 -179.999991 0.000005 -1.113999 174.989597 -4.174049 -0.583619 -0.000007 0.000001 0.058392 69.119459 6.889946 2.141430 25.456959 -7.355617 0.000000 3.540256 175.604368 0.466389 -0.000005 -0.000005 -1.226280 -7.470951 3.122063 0.873131 0.000001 -0.000001 -0.082615 67.874397 -6.944772 -2.059030 25.456959 7.355613 -0.000001 
37.194698 -3.749476 98.870804 -3.976055 -0.867571 0.192589 -1.245142 0.011660 0.071398 1.523421 0.026331 0.121267 3.168491 0.027789 0.120957 24.459585 1.426338 -1.023890 -7.261092 0.160870 -0.945189 -2.121384 -76.465764 -4.310371 -82.625208 -115.751093 -58.990131 0.000002 0.000000 0.000001 0.085236 -10.558790 -0.512502 0.000002 -0.000004 -3.097179 -5.000233 -7.998782 0.000171 11.334527 67.783965 -11.535673 -58.347622 108.092334 40.155884 0.000003 -0.000006 -0.000001 0.072458 9.291724 0.701837 0.000002 -0.000013 3.036309 -5.000234 7.998863 -0.000126 2.272752 -175.343646 1.870536 -179.999991 0.000005 -1.113999 175.002137 -4.187084 -0.582839 -0.000007 0.000001 0.058392 69.110811 6.889945 2.141367 25.456962 -7.355615 0.000000 3.526236 175.603303 0.465835 -0.000005 -0.000004 -1.226280 -7.497117 3.121450 0.874177 0.000000 -0.000001 -0.082628 67.883433 -6.944767 -2.059061 25.456959 7.355614 -0.000001 
37.191002 -3.748653 98.871696 -3.974054 -0.866243 0.196515 -1.245999 0.011660 0.071402 1.520820 0.026847 0.121433 3.165890 0.028310 0.121126 24.469634 1.421910 -1.030825 -7.280543 0.157374 -0.952036 -2.127725 -76.474616 -4.318005 -82.654318 -115.694826 -59.071731 -0.000001 -0.000001 0.000001 0.085510 -10.634591 -0.516580 0.000001 -0.000005 -3.096869 -5.000235 -7.998782 0.000172 11.385396 67.794272 -11.590145 -58.405699 108.063742 40.157093 0.000004 -0.000006 -0.000000 0.072449 9.258966 0.711507 -0.000002 -0.000013 3.036970 -5.000238 7.998863 -0.000126 2.280483 -175.339671 1.882242 -179.999991 0.000005 -1.113999 175.014991 -4.202109 -0.583199 -0.000007 0.000001 0.058392 69.102042 6.889936 2.141313 25.456959 -7.355618 0.000001 3.511989 175.601240 0.465220 -0.000005 -0.000004 -1.226280 -7.523564 3.120904 0.875224 0.000001 -0.000001 -0.082631 67.892579 -6.944771 -2.059085 25.456955 7.355613 -0.000001 
37.189400 -3.755243 98.875404 -3.971933 -0.864947 0.200412 -1.246888 0.011660 0.071407 1.518140 0.027402 0.121580 3.163211 0.028870 0.121275 24.479594 1.417537 -1.037809 -7.299891 0.153942 -0.958939 -2.134666 -76.483365 -4.326257 -82.683347 -115.638490 -59.152396 0.000002 -0.000001 -0.000001 0.085782 -10.709992 -0.521022 0.000001 -0.000004 -3.096590 -5.000232 -7.998783 0.000172 11.436118 67.804401 -11.644486 -58.460655 108.034639 40.155386 0.000002 -0.000007 -0.000001 0.072441 9.226695 0.721232 -0.000000 -0.000013 3.037619 -5.000234 7.998863 -0.000126 2.288240 -175.335696 1.894312 -179.999991 0.000006 -1.113999 175.028078 -4.217135 -0.583538 -0.000007 0.000001 0.058392 69.093073 6.889951 2.141274 25.456957 -7.355616 0.000000 3.497576 175.599178 0.464605 -0.000005 -0.000005 -1.226280 -7.550200 3.120404 0.876272 0.000000 -0.000001 -0.082628 67.901827 -6.944781 -2.059004 25.456953 7.355613 -0.000000 
37.194698 -3.768876 98.873100 -3.969731 -0.863668 0.204292 -1.247801 0.011660 0.071412 1.515401 0.027980 0.121715 3.160472 0.029453 0.121411 24.489445 1.413194 -1.044819 -7.319185 0.150549 -0.965873 -2.141941 -76.491999 -4.334869 -82.712559 -115.582251 -59.232746 0.000000 0.000001 0.000002 0.086040 -10.784990 -0.525664 0.000001 -0.000005 -3.096333 -5.000234 -7.998783 0.000170 11.486798 67.814489 -11.698788 -58.513875 108.005344 40.152121 0.000004 -0.000006 -0.000001 0.072440 9.194694 0.730990 0.000002 -0.000013 3.038260 -5.000234 7.998863 -0.000127 2.295997 -175.331748 1.906592 -179.999991 0.000005 -1.113999 175.041274 -4.232163 -0.582863 -0.000007 0.000001 0.058392 69.084099 6.889962 2.141234 25.456957 -7.355616 0.000000 3.483045 175.598112 0.464053 -0.000005 -0.000005 -1.226280 -7.576955 3.119923 0.877318 0.000001 -0.000001 -0.082620 67.911191 -6.944798 -2.059018 25.456955 7.355613 -0.000000 
37.195702 -3.773285 98.871399 -3.967521 -0.862394 0.208168 -1.248719 0.011660 0.071418 1.512651 0.028564 0.121847 3.157720 0.030041 0.121546 24.499303 1.408861 -1.051838 -7.338466 0.147169 -0.972817 -2.149316 -76.500646 -4.343575 -82.741929 -115.525929 -59.313096 -0.000000 -0.000000 0.000001 0.086301 -10.859892 -0.530364 0.000002 -0.000004 -3.096081 -5.000233 -7.998784 0.000172 11.537505 67.824584 -11.753117 -58.566406 107.976002 40.148238 0.000004 -0.000007 -0.000001 0.072445 9.162764 0.740754 -0.000000 -0.000013 3.038910 -5.000232 7.998862 -0.000126 2.303771 -175.326776 1.918964 -179.999991 0.000005 -1.113999 175.054525 -4.247190 -0.583175 -0.000007 0.000001 0.058392 69.075117 6.889938 2.141287 25.456959 -7.355619 -0.000000 3.468513 175.596049 0.463440 -0.000005 -0.000005 -1.226280 -7.603733 3.119452 0.878364 0.000001 -0.000001 -0.082611 67.920542 -6.944775 -2.059025 25.456955 7.355613 -0.000000 
